<svg xmlns="http://www.w3.org/2000/svg" version="1.1" xmlns:xlink="http://www.w3.org/1999/xlink" xmlns:svgjs="http://svgjs.com/svgjs" width="1440" height="560" preserveAspectRatio="none" viewBox="0 0 1440 560"><g mask="url(&quot;#SvgjsMask1509&quot;)" fill="none"><rect width="1440" height="560" x="0" y="0" fill="url(#SvgjsLinearGradient1510)"></rect><path d="M1560 560L0 560 L0 271.01Q65.4 216.41, 120 281.82Q191.15 232.97, 240 304.12Q258.62 250.74, 312 269.36Q356.57 241.94, 384 286.51Q430.3 260.81, 456 307.11Q498.41 229.52, 576 271.93Q603.91 227.85, 648 255.76Q702.23 189.99, 768 244.22Q825.98 230.2, 840 288.18Q888.1 264.28, 912 312.38Q914.44 242.82, 984 245.26Q1058.56 199.82, 1104 274.38Q1187.43 237.81, 1224 321.25Q1228.69 253.94, 1296 258.64Q1325.18 215.82, 1368 245.01Q1427.78 232.79, 1440 292.57Q1493.72 226.29, 1560 280.02z" fill="rgba(96, 108, 56, 1)"></path><path d="M1536 560L0 560 L0 373.76Q13.75 315.51, 72 329.27Q142.19 279.46, 192 349.65Q207.87 293.52, 264 309.39Q330.02 255.41, 384 321.44Q478.94 296.38, 504 391.32Q521.78 289.11, 624 306.89Q698.06 260.94, 744 335Q822.02 293.02, 864 371.05Q930.43 317.49, 984 383.92Q989.52 317.44, 1056 322.96Q1110.26 257.22, 1176 311.47Q1258.93 274.4, 1296 357.33Q1361.74 303.07, 1416 368.82Q1445.17 277.99, 1536 307.16z" fill="rgba(40, 54, 24, 1)"></path><path d="M1488 560L0 560 L0 435.92Q13.6 377.52, 72 391.13Q101.28 348.41, 144 377.7Q192.28 353.98, 216 402.26Q259.26 373.52, 288 416.79Q332.26 389.05, 360 433.31Q427.04 380.35, 480 447.39Q493.12 388.5, 552 401.62Q606.24 335.86, 672 390.09Q722.27 320.36, 792 370.63Q879.5 338.13, 912 425.64Q950.4 344.04, 1032 382.44Q1079.05 357.49, 1104 404.53Q1122.04 350.56, 1176 368.6Q1244.69 317.3, 1296 385.99Q1351.81 369.8, 1368 425.61Q1417.81 355.42, 1488 405.22z" fill="rgba(254, 250, 224, 1)"></path><path d="M1536 560L0 560 L0 488.98Q42.49 459.47, 72 501.96Q138.45 448.41, 192 514.86Q202.44 453.3, 264 463.74Q289.88 417.62, 336 443.49Q391.17 426.66, 408 481.84Q435.32 437.16, 480 464.48Q500.61 413.09, 552 433.69Q595.15 404.85, 624 448Q704.37 408.37, 744 488.74Q793.87 418.61, 864 468.47Q912.44 396.92, 984 445.36Q1065.14 406.5, 1104 487.64Q1129.18 440.82, 1176 466Q1259.7 429.7, 1296 513.4Q1342.94 440.34, 1416 487.28Q1458.77 410.05, 1536 452.82z" fill="rgba(221, 161, 94, 1)"></path><path d="M1512 560L0 560 L0 566.53Q34.6 529.13, 72 563.72Q75.67 495.39, 144 499.06Q219.73 502.79, 216 578.53Q233.44 523.97, 288 541.42Q356.75 490.17, 408 558.93Q452.87 483.8, 528 528.67Q557.3 485.97, 600 515.27Q661.88 505.15, 672 567.04Q720.74 495.77, 792 544.51Q848.04 528.55, 864 584.58Q916.4 516.98, 984 569.38Q992.02 505.4, 1056 513.42Q1083.72 469.14, 1128 496.86Q1206.68 455.54, 1248 534.21Q1292.37 506.58, 1320 550.95Q1391.62 502.57, 1440 574.18Q1443.87 506.04, 1512 509.91z" fill="rgba(188, 108, 37, 1)"></path></g><defs><mask id="SvgjsMask1509"><rect width="1440" height="560" fill="#ffffff"></rect></mask><linearGradient x1="84.72%" y1="139.29%" x2="15.28%" y2="-39.29%" gradientUnits="userSpaceOnUse" id="SvgjsLinearGradient1510"><stop stop-color="#0e2a47" offset="0"></stop><stop stop-color="rgba(37, 45, 8, 1)" offset="1"></stop></linearGradient></defs></svg>